<?xml version="1.0" encoding="UTF-8"?>
<svg width="250px" height="250px" viewBox="0 0 250 250" version="1.1" xmlns="http://www.w3.org/2000/svg">
    <title>Placeholder</title>
    <g id="placeholder" stroke="none" stroke-width="1" fill="none" fill-rule="evenodd">
        <rect fill="#FFFFFF" x="0" y="0" width="250" height="250" />
        <g id="Group-Copy" transform="translate(42.000000, 42.000000)" stroke="#C8D0D7" stroke-linecap="round" stroke-linejoin="round"
           stroke-width="6">
            <g id="picture-landscape">
                <rect id="Rectangle-path" fill="#FFFFFF" x="0.122781065" y="0.122781065" width="165.754438" height="165.754438"
                      rx="20" />
                <path d="M0.122781065,121.676036 L165.877219,121.676036 L165.877219,145.877219 C165.877219,156.922914 156.922914,165.877219 145.877219,165.877219 L20.1227811,165.877219 C9.07708607,165.877219 0.122781065,156.922914 0.122781065,145.877219 L0.122781065,121.676036 L0.122781065,121.676036 Z"
                      id="Rectangle-path-Copy" fill="#ECEFF1" />
                <path d="M33.2736686,121.676036 L58.7777515,87.6705917 C60.6993805,85.1066913 63.6392522,83.5031003 66.8352578,83.275521 C70.0312633,83.0479417 73.1686952,84.2187834 75.4342308,86.4845266 L83,94.0502959 L107.310651,61.6360947 C109.397548,58.8535656 112.672726,57.2159763 116.150888,57.2159763 C119.629049,57.2159763 122.904227,58.8535656 124.991124,61.6360947 L144.660651,87.8621302"
                      id="Shape" />
                <circle id="Oval" fill="#ECEFF1" cx="41.5613905" cy="41.5613905" r="13.8128698" />
                <line x1="0.122781065" y1="121.676036" x2="165.877219" y2="121.676036" id="Shape" />
            </g>
        </g>
    </g>
</svg>
