<?xml version="1.0" encoding="utf-8"?>
<!-- Generator: Adobe Illustrator 16.0.0, SVG Export Plug-In . SVG Version: 6.00 Build 0)  -->
<!DOCTYPE svg PUBLIC "-//W3C//DTD SVG 1.1//EN" "http://www.w3.org/Graphics/SVG/1.1/DTD/svg11.dtd">
<svg version="1.1" id="Ebene_1" xmlns="http://www.w3.org/2000/svg" xmlns:xlink="http://www.w3.org/1999/xlink" x="0px" y="0px"
	 width="283.46px" height="283.46px" viewBox="0 0 283.46 283.46" enable-background="new 0 0 283.46 283.46" xml:space="preserve">
<circle fill="#067DB1" cx="141.732" cy="141.732" r="141.732"/>
<path fill="#FFFFFF" d="M113.227,59.907h33.065v2.218l35.953,74.946l9.502-35.417c-3.898-2.275-8.316-4.218-13.32-5.746l-1.303,5.1
	l-4.103-0.981l7.787-30.499l4.101,0.981l-0.812,3.177c5.06,0.962,9.709,2.467,13.961,4.432l4.231-15.763
	c0.689-2.583,1.373-2.716-1.487-2.716h-3.666v-2.554c6.752,0,13.42,0,20.282,0v2.554h-2.893c-3.406,0-3.123-0.28-3.98,2.912
	l-5.256,19.597c14.422,9.538,23.004,25.147,25.935,42.396c8.455,49.797-29.197,88.886-63.146,121.29l-30.931-61.779l-11.703,27.557
	l5.58,11.748l-17.508,28.678l-36.163-75.822c-11.613-0.145-23.113-3.702-31.826-11.034c-17.125-14.41-11.385-33.25-6.641-42.793
	c1.446-2.909,0.267-3.903-0.506-4.892l-1.597-1.661l2.71-2.442l23.223,24.14l-2.713,2.441l-0.68-0.708
	c-0.953,3.285-3.033,11.796-1.178,18.22c1.701,5.892,6.31,10.767,15.957,11.912l-9.283-19.459c-0.756-1.584-1.18-1.283-2.511-1.17
	l-0.285-2.785l36.088-3.448l0.284,2.786l-1.906,0.183c-0.651,0.024-2.045,0.703-1.35,2.293l7.741,16.301
	c6.755-3.961,9.243-9.668,10.119-16.529c1.358-10.635-6.683-19.955-19.159-25.332c-12.476-5.377-33.103-14.937-36.19-27.842
	c-3.088-12.906-1.977-26.409,12.845-36.686c14.824-10.277,36.809,2.032,36.809,2.032L93.103,84.234l-1.359-0.479
	c0,0-0.247-12.07-8.399-16.132c-8.15-4.063-17.168-0.836-15.687,10.158c1.482,10.992,20.258,15.892,31.251,20.554
	c10.992,4.66,26.432,12.904,27.915,29.395c0.971,10.822-1.248,23.291-9.276,32.271c-3.4,3.805-7.527,6.969-12.114,9.465
	l13.794,29.051l25.154-54.188l39.437,75.075c28.078-26.709,47.604-85.445,14.927-112.861l-11.173,41.635l2.927,6.096l-9.896,31.822
	L116.53,64.454c-1.087-2.063-0.909-1.992-3.303-1.992V59.907L113.227,59.907z"/>
<circle fill="none" stroke="#FFFFFF" stroke-width="7" stroke-miterlimit="10" cx="141.733" cy="141.732" r="130.394"/>
</svg>
