<?xml version="1.0" encoding="UTF-8" standalone="no"?>
<!DOCTYPE svg PUBLIC "-//W3C//DTD SVG 1.1//EN" "http://www.w3.org/Graphics/SVG/1.1/DTD/svg11.dtd">
<svg width="100%" height="100%" viewBox="0 0 880 360" version="1.1" xmlns="http://www.w3.org/2000/svg" xmlns:xlink="http://www.w3.org/1999/xlink" xml:space="preserve" xmlns:serif="http://www.serif.com/" style="fill-rule:evenodd;clip-rule:evenodd;stroke-linejoin:round;stroke-miterlimit:2;">
    <g transform="matrix(2,0,0,2,-70,-170)">
        <g>
            <g transform="matrix(0.250984,0,0,0.250984,14.1732,0)">
                <path d="M297.283,353.674C194.382,353.674 110.966,437.09 110.966,539.991C110.966,642.893 194.382,726.326 297.283,726.326C400.185,726.326 483.6,642.893 483.6,539.991C483.6,437.09 400.185,353.674 297.283,353.674M333.085,561.036L318.536,652.194L276.828,652.194L262.348,561.036L182.448,496.673L203.614,462.395L297.699,497.816L391.802,462.395L412.205,496.673L333.085,561.036Z" style="fill:rgb(85,169,222);fill-rule:nonzero;"/>
            </g>
            <g transform="matrix(0.250984,0,0,0.250984,14.1732,0.626958)">
                <path d="M787.901,570.924C787.901,561.917 779.795,554.279 766.978,554.279L642.547,554.279C614.194,554.279 593.946,530.879 593.946,505.227C593.946,480.476 614.194,460.003 642.547,460.003L814.454,460.003L814.454,490.816L643.673,490.816C631.965,490.816 624.551,498.247 624.551,506.803C624.551,515.567 632.19,523.448 643.673,523.448L770.131,523.448C800.268,523.448 818.957,546.848 818.957,571.599C818.957,597.251 795.332,617.499 770.131,617.499L593.946,617.499L593.946,586.893L766.978,586.893C780.021,586.893 787.901,579.48 787.901,570.924" style="fill:rgb(109,110,112);fill-rule:nonzero;"/>
            </g>
            <g transform="matrix(0.250984,0,0,0.250984,14.1732,0.626707)">
                <path d="M1061.97,459.995L1061.97,490.826L964.77,490.826L964.77,617.508L933.94,617.508L933.94,490.826L836.962,490.826L836.962,459.995L1061.97,459.995Z" style="fill:rgb(109,110,112);fill-rule:nonzero;"/>
            </g>
            <g transform="matrix(0.250984,0,0,0.250984,14.1732,0.623193)">
                <path d="M1304.99,617.515L1274.16,617.515L1274.16,554.295L1110.58,554.295L1110.58,617.515L1079.98,617.515L1079.98,507.253C1079.98,481.168 1101.13,460.002 1127.23,460.002L1257.74,460.002C1283.84,460.002 1304.99,481.168 1304.99,507.253L1304.99,617.515ZM1110.58,523.465L1274.16,523.465L1274.16,513.783C1274.16,499.164 1265.85,490.833 1250.99,490.833L1141.87,490.833C1123.85,490.833 1110.58,494.886 1110.58,513.783L1110.58,523.465Z" style="fill:rgb(109,110,112);fill-rule:nonzero;"/>
            </g>
            <g transform="matrix(0.250984,0,0,0.250984,14.1732,0.624197)">
                <path d="M1526.18,554.284L1362.61,554.284L1362.61,617.504L1332,617.504L1332,460.009L1362.61,460.009L1362.61,523.454L1526.18,523.454L1526.18,460.009L1557.01,460.009L1557.01,617.504L1526.18,617.504L1526.18,554.284Z" style="fill:rgb(109,110,112);fill-rule:nonzero;"/>
            </g>
            <g transform="matrix(0.250984,0,0,0.250984,14.1732,0.626707)">
                <path d="M1584.02,459.995L1614.63,459.995L1614.63,586.903L1809.03,586.903L1809.03,617.508L1584.02,617.508L1584.02,459.995Z" style="fill:rgb(109,110,112);fill-rule:nonzero;"/>
            </g>
            <text x="42.024px" y="212.086px" style="font-family:'SegoeUI', 'Segoe UI';font-size:15.059px;fill:rgb(0,174,239);">S<tspan x="50.969px 57.503px 66.596px 76.548px 81.626px 87.181px 95.965px 101.043px 107.709px 122.11px 131.416px 141.369px 151.667px 158.334px 168.286px 178.57px 188.854px " y="212.086px 212.086px 212.086px 212.086px 212.086px 212.086px 212.086px 212.086px 212.086px 212.086px 212.086px 212.086px 212.086px 212.086px 212.086px 212.086px 212.086px ">tahl Firmengruppe</tspan></text>
            <text x="42.024px" y="234.675px" style="font-family:'SegoeUI', 'Segoe UI';font-size:15.059px;fill:rgb(35,31,32);">J<tspan x="49.055px 59.535px 69.714px 79.032px 89.211px 99.389px 108.921px 116.967px 124.645px 139.824px 149.142px 154.446px 163.977px 170.869px 178.547px 187.718px 194.478px 201.369px 210.688px 220.535px 230.067px 235.846px 245.621px 258.871px 268.495px 278.119px 287.743px 297.367px 306.991px 321.975px 331.143px 336.296px 346.67px 357.044px 367.374px 374.115px 380.335px 390.363px 399.531px 407.427px 412.58px 421.748px 430.21px " y="234.675px 234.675px 234.675px 234.675px 234.675px 234.675px 234.675px 234.675px 234.675px 234.675px 234.675px 234.675px 234.675px 234.675px 234.675px 234.675px 234.675px 234.675px 234.675px 234.675px 234.675px 234.675px 234.675px 234.675px 234.675px 234.675px 234.675px 234.675px 234.675px 234.675px 234.675px 234.675px 234.675px 234.675px 234.675px 234.675px 234.675px 234.675px 234.675px 234.675px 234.675px 234.675px 234.675px ">ohannes-Majer-Straße 5 72141Walddorfhäslach</tspan></text>
            <text x="42.024px" y="257.263px" style="font-family:'SegoeUI', 'Segoe UI';font-size:15.059px;fill:rgb(35,31,32);">T<tspan x="49.799px 59.03px 64.032px 68.653px 74.131px 83.605px 93.078px 102.551px 112.025px 121.498px 126.979px 134.203px 139.682px 149.155px 158.629px 168.102px 177.575px 183.056px 190.434px 195.914px 205.387px 214.861px 224.334px 258.876px 271.867px 284.858px 297.849px 303.222px 311.72px 318.932px 328.702px 339.333px 345.088px 353.219px 364.195px 371.538px 382.169px 393.13px 404.092px 414.075px 419.448px 428.513px 439.445px " y="257.263px 257.263px 257.263px 257.263px 257.263px 257.263px 257.263px 257.263px 257.263px 257.263px 257.263px 257.263px 257.263px 257.263px 257.263px 257.263px 257.263px 257.263px 257.263px 257.263px 257.263px 257.263px 257.263px 257.263px 257.263px 257.263px 257.263px 257.263px 257.263px 257.263px 257.263px 257.263px 257.263px 257.263px 257.263px 257.263px 257.263px 257.263px 257.263px 257.263px 257.263px 257.263px 257.263px ">el. 07127 / 9999 - 100 www.stahl-gruppe.com</tspan></text>
        </g>
    </g>
</svg>
