<?xml version="1.0" encoding="utf-8"?>
<!-- Generator: Adobe Illustrator 16.0.0, SVG Export Plug-In . SVG Version: 6.00 Build 0)  -->
<!DOCTYPE svg PUBLIC "-//W3C//DTD SVG 1.1//EN" "http://www.w3.org/Graphics/SVG/1.1/DTD/svg11.dtd">
<svg version="1.1" id="Ebene_1" xmlns="http://www.w3.org/2000/svg" xmlns:xlink="http://www.w3.org/1999/xlink" x="0px" y="0px"
	 width="283.46px" height="283.46px" viewBox="0 0 283.46 283.46" enable-background="new 0 0 283.46 283.46" xml:space="preserve">
<ellipse fill-rule="evenodd" clip-rule="evenodd" fill="#FFFFFF" cx="141.73" cy="141.74" rx="139.46" ry="139.387"/>
<g>
	<path fill-rule="evenodd" clip-rule="evenodd" fill="#057DB1" stroke="#FFFFFF" stroke-miterlimit="10" d="M121.892,82.086h23.861
		v1.635l25.946,55.236l6.857-26.103c-2.813-1.677-6.002-3.108-9.613-4.234l-0.939,3.759l-2.96-0.724l5.62-22.478l2.959,0.723
		l-0.586,2.342c3.65,0.709,7.008,1.818,10.076,3.267l3.053-11.618c0.499-1.904,0.992-2.002-1.073-2.002h-2.646v-1.882
		c4.873,0,9.685,0,14.639,0v1.882h-2.088c-2.459,0-2.254-0.207-2.873,2.146l-3.793,14.443c10.408,7.029,16.603,18.534,18.716,31.246
		c6.103,36.702-21.071,65.511-45.571,89.392l-22.322-45.532l-8.444,20.311l4.026,8.658l-12.636,21.136l-26.097-55.882
		c-8.381-0.106-16.681-2.729-22.968-8.134c-12.359-10.619-8.216-24.506-4.792-31.539c1.044-2.144,0.193-2.877-0.366-3.605
		l-1.152-1.225l1.956-1.8l16.759,17.791l-1.958,1.799l-0.491-0.521c-0.688,2.422-2.189,8.694-0.851,13.43
		c1.227,4.341,4.554,7.934,11.516,8.779l-6.699-14.342c-0.545-1.167-0.852-0.946-1.812-0.861l-0.206-2.054l26.044-2.542l0.205,2.054
		l-1.376,0.135c-0.47,0.018-1.476,0.518-0.974,1.689l5.586,12.014c4.875-2.918,6.671-7.126,7.303-12.182
		c0.98-7.839-4.823-14.708-13.826-18.671c-9.003-3.963-23.89-11.009-26.118-20.521c-2.229-9.512-1.427-19.464,9.27-27.038
		c10.698-7.574,26.564,1.498,26.564,1.498l-10.251,18.055l-0.981-0.353c0,0-0.178-8.896-6.062-11.89
		c-5.882-2.994-12.39-0.616-11.321,7.486c1.069,8.102,14.62,11.713,22.553,15.148c7.933,3.435,19.076,9.511,20.146,21.664
		c0.701,7.977-0.9,17.166-6.694,23.785c-2.454,2.804-5.432,5.137-8.742,6.976l9.955,21.41l18.153-39.937l28.461,55.332
		c20.264-19.685,34.355-62.975,10.771-83.181l-8.063,30.687l2.111,4.491l-7.141,23.455l-46.241-89.653
		c-0.785-1.521-0.656-1.469-2.383-1.469V82.086L121.892,82.086z M141.73,48.865c51.313,0,92.924,41.591,92.924,92.876
		c0,51.284-41.61,92.874-92.924,92.874c-51.312,0-92.924-41.59-92.924-92.874C48.807,90.456,90.419,48.865,141.73,48.865
		L141.73,48.865z M141.73,10.791c72.349,0,131.021,58.64,131.021,130.951c0,72.31-58.672,130.951-131.021,130.951
		c-72.348,0-131.02-58.642-131.02-130.951C10.711,69.431,69.382,10.791,141.73,10.791L141.73,10.791z M141.73,2.354
		c77.01,0,139.46,62.418,139.46,139.387c0,76.968-62.45,139.386-139.46,139.386c-77.009,0-139.46-62.418-139.46-139.386
		C2.271,64.772,64.722,2.354,141.73,2.354L141.73,2.354z M42.91,82.117L42.91,82.117c-1.021-0.488-2.042-0.512-3.065-0.061
		c-1.023,0.451-1.898,1.306-2.622,2.558c-0.63,1.091-0.881,2.076-0.755,2.968c0.126,0.892,0.618,1.582,1.471,2.074
		c0.615,0.354,1.276,0.312,1.98-0.139c0.704-0.439,1.875-1.555,3.517-3.35c2.394-2.594,4.319-4.144,5.776-4.643
		c1.443-0.507,3.126-0.209,5.046,0.899c1.926,1.111,3.018,2.75,3.272,4.917c0.252,2.17-0.364,4.546-1.858,7.131
		c-1.499,2.597-3.271,4.279-5.314,5.043c-2.045,0.77-4.202,0.565-6.476-0.612l0,0l2.385-4.129l0,0
		c1.116,0.586,2.179,0.672,3.196,0.263c1.016-0.405,1.908-1.269,2.678-2.601c0.79-1.367,1.187-2.562,1.187-3.583
		c0-1.022-0.39-1.756-1.176-2.209c-0.772-0.446-1.499-0.497-2.18-0.153c-0.673,0.329-1.715,1.265-3.126,2.806
		c-2.608,2.831-4.652,4.555-6.127,5.165c-1.469,0.605-3.093,0.393-4.87-0.634c-1.992-1.149-3.154-2.778-3.488-4.895
		c-0.333-2.117,0.206-4.403,1.622-6.856c1.326-2.295,3.012-3.818,5.053-4.558c2.044-0.745,4.136-0.604,6.286,0.426l0,0L42.91,82.117
		L42.91,82.117z M62.045,82.994L44.161,67.456l0,0l1.618-1.859l0,0l4.887-5.62c1.769-2.034,3.593-3.167,5.468-3.404
		c1.879-0.232,3.729,0.441,5.556,2.029c1.931,1.677,2.934,3.482,3.011,5.414c0.081,1.936-0.768,3.917-2.537,5.95
		c-1.264,1.438-2.342,2.694-3.234,3.77l0,0l6.361,5.527l0,0l-1.617,1.859L62.045,82.994L62.045,82.994z M55.828,71.041
		L55.828,71.041l2.71-3.117c0.91-1.046,1.359-2.033,1.354-2.956c-0.01-0.927-0.48-1.794-1.411-2.604
		c-0.855-0.743-1.718-1.033-2.6-0.882c-0.883,0.151-1.777,0.751-2.687,1.797l-2.71,3.117l0,0L55.828,71.041L55.828,71.041z
		 M85.379,61.562c-2.853,1.997-5.757,2.673-8.713,2.03c-2.959-0.647-5.528-2.522-7.702-5.625c-2.219-3.168-3.137-6.271-2.76-9.308
		c0.378-3.038,1.992-5.556,4.844-7.553c2.867-2.006,5.796-2.667,8.776-1.979c2.98,0.687,5.58,2.613,7.797,5.78
		c2.175,3.104,3.062,6.155,2.665,9.152C89.884,57.052,88.246,59.556,85.379,61.562L85.379,61.562z M82.965,58.116
		c1.654-1.158,2.535-2.653,2.638-4.491c0.103-1.837-0.577-3.806-2.051-5.909c-1.503-2.144-3.148-3.496-4.933-4.06
		c-1.783-0.559-3.501-0.262-5.156,0.896c-1.65,1.154-2.512,2.665-2.596,4.529c-0.081,1.869,0.627,3.878,2.129,6.022
		c1.474,2.104,3.087,3.419,4.846,3.954C79.6,59.591,81.306,59.276,82.965,58.116L82.965,58.116z M97.572,52.975L89.08,30.863l0,0
		l2.301-0.883l0,0l8.851-3.395c2.106-0.809,4.023-0.896,5.746-0.261c1.722,0.63,2.935,1.873,3.643,3.715
		c0.818,2.131,0.694,3.958-0.36,5.493c-0.28,0.408-0.626,0.794-1.04,1.159l0,0c0.314,0.003,0.607,0.032,0.878,0.075
		c1.551,0.265,2.695,1.281,3.422,3.035l1.5,3.583c0.299,0.716,0.572,1.2,0.816,1.449c0.244,0.253,0.589,0.398,1.027,0.435
		l0.226,0.586l-5.101,1.957c-0.212-0.184-0.504-0.638-0.889-1.362c-0.382-0.719-0.742-1.518-1.087-2.387l-0.815-2.031
		c-0.401-0.983-0.965-1.579-1.693-1.784c-0.731-0.202-1.748-0.054-3.062,0.451l-4.608,1.768l0,0l3.357,8.738l0,0l-2.302,0.883
		L97.572,52.975L97.572,52.975z M97.406,38.748L97.406,38.748l5.358-2.056c1.196-0.459,1.997-1.043,2.411-1.762
		c0.408-0.716,0.424-1.564,0.047-2.545c-0.374-0.975-0.937-1.596-1.695-1.865c-0.751-0.271-1.697-0.185-2.827,0.249l-5.543,2.126
		l0,0L97.406,38.748L97.406,38.748z M124.986,44.368l-2.375-19.333l0,0l-7.105,0.872l0,0l-0.255-2.08l-0.257-2.097l0,0l19.119-2.346
		l0,0l0.256,2.08l0.256,2.096l0,0l-7.104,0.872l0,0l2.375,19.333l0,0l-2.446,0.301L124.986,44.368L124.986,44.368z M139.536,18.743
		L139.536,18.743l2.622,0.184l2.624,0.184l0,0l3.936,18.411h-0.011l0,0l6.444-17.687l0,0l2.541,0.178l2.552,0.178l0,0l-9.661,23.067
		l-2.344-0.164l-2.35-0.165L139.536,18.743L139.536,18.743z M161.377,44.627L161.377,44.627l6.134-22.878l0,0l16.847,4.512l0,0
		l-0.543,2.024l-0.545,2.04l0,0l-12.071-3.233l0,0l-1.302,4.855l0,0l11.199,2.999l-0.526,1.96l-0.529,1.976l0,0l-11.198-2.999l0,0
		l-1.598,5.959l0,0l12.602,3.375l0,0l-0.543,2.024l-0.547,2.04l0,0L161.377,44.627L161.377,44.627z M181.85,51.135l11.488-20.716
		l0,0l2.156,1.194l0,0l8.292,4.594c1.972,1.093,3.271,2.505,3.894,4.232c0.623,1.723,0.451,3.45-0.508,5.177
		c-1.105,1.997-2.585,3.076-4.439,3.255c-0.492,0.048-1.012,0.031-1.557-0.051l0,0c0.198,0.242,0.364,0.486,0.506,0.72
		c0.794,1.359,0.75,2.888-0.126,4.571l-1.782,3.452c-0.358,0.688-0.553,1.21-0.586,1.555c-0.037,0.351,0.073,0.707,0.328,1.067
		l-0.306,0.548l-4.778-2.647c0.004-0.28,0.164-0.795,0.473-1.555c0.305-0.755,0.688-1.544,1.13-2.367l1.033-1.93
		c0.495-0.939,0.589-1.754,0.278-2.443c-0.315-0.69-1.081-1.373-2.314-2.055l-4.315-2.392l0,0l-4.541,8.187l0,0l-2.155-1.195
		L181.85,51.135L181.85,51.135z M192.646,41.862L192.646,41.862l5.019,2.781c1.122,0.621,2.084,0.859,2.901,0.713
		c0.812-0.147,1.473-0.68,1.98-1.598c0.508-0.915,0.622-1.744,0.342-2.498c-0.277-0.75-0.949-1.418-2.009-2.005l-5.192-2.877l0,0
		L192.646,41.862L192.646,41.862z M202.361,63.179L202.361,63.179l16.162-17.323l0,0l12.755,11.889l0,0l-1.429,1.532l-1.441,1.544
		l0,0l-9.139-8.517l0,0l-3.43,3.676l0,0l8.479,7.902l-1.386,1.484l-1.395,1.496l0,0l-8.48-7.902l0,0l-4.209,4.513l0,0l9.541,8.892
		l0,0l-1.43,1.532l-1.441,1.544l0,0L202.361,63.179L202.361,63.179z M217.271,78.284l18.417-14.906l0,0l1.552,1.915l1.561,1.927l0,0
		l-18.417,14.906l0,0l-1.552-1.915L217.271,78.284L217.271,78.284z M225.266,89.214L225.266,89.214l-1.152-1.996l-1.162-2.009l0,0
		l20.523-11.843l0,0l1.299,2.248l1.299,2.248l0,0l-9.656,16.545l0,0l0,0l14.41-8.315l0,0l1.151,1.996l1.16,2.009l0,0l-20.522,11.843
		l-1.23-2.134l-1.236-2.137l9.917-16.995l0,0l0,0L225.266,89.214L225.266,89.214z M44.884,218.451l12.835-20.971l0,0l1.757,1.883
		l1.759,1.886l0,0l-9.993,14.713l-0.004-0.004l0,0l15.003-9.344l1.791,1.918l1.804,1.936l-10.244,14.226l0.003,0.003l0,0
		l15.258-8.853l0,0l1.708,1.831l1.708,1.829l0,0l-21.832,11.33l-1.602-1.716l-1.606-1.723l11.045-15.497l0,0l0,0l-16.178,9.996
		l-1.606-1.722L44.884,218.451L44.884,218.451z M67.303,240.009l20.199-14.953l2.381,1.606l2.376,1.601l-6.287,24.333l0,0
		l-2.176-1.468l-2.175-1.466l0,0l1.363-4.893l0,0l-7.463-5.031l0,0l-3.981,3.126l0,0l-2.112-1.423L67.303,240.009L67.303,240.009z
		 M86.88,230.991l-7.938,6.139l0,0l5.222,3.521l0,0L86.88,230.991L86.88,230.991L86.88,230.991z M95.148,255.965L95.148,255.965
		l7.715-22.394l0,0l2.331,0.801l2.347,0.808l0,0l-6.345,18.417l0,0l11.144,3.836l0,0l-0.683,1.981l-0.688,1.997l0,0L95.148,255.965
		L95.148,255.965z M120.918,263.614l2.064-23.593l0,0l2.456,0.215l0,0l7.646,0.667c3.239,0.284,5.624,1.452,7.144,3.507
		c1.517,2.047,2.117,4.91,1.796,8.58c-0.355,4.043-1.501,7.039-3.434,8.991c-1.932,1.951-4.589,2.777-7.977,2.481l-7.241-0.633l0,0
		L120.918,263.614L120.918,263.614z M126.201,259.986L126.201,259.986l4.16,0.364c2,0.174,3.563-0.374,4.684-1.64
		c1.121-1.264,1.797-3.253,2.035-5.959c0.213-2.449-0.091-4.33-0.917-5.634c-0.824-1.31-2.173-2.045-4.048-2.208l-4.561-0.399l0,0
		L126.201,259.986L126.201,259.986z M151.216,264.74l-2.887-23.51l0,0l2.446-0.3l0,0l7.617-0.934
		c3.229-0.397,5.801,0.251,7.717,1.943c1.91,1.688,3.092,4.364,3.541,8.021c0.496,4.028-0.002,7.197-1.486,9.508
		c-1.485,2.31-3.912,3.672-7.287,4.086l-7.214,0.885l0,0L151.216,264.74L151.216,264.74z M155.629,260.093L155.629,260.093
		l4.146-0.509c1.992-0.245,3.405-1.104,4.24-2.575c0.833-1.471,1.081-3.558,0.75-6.253c-0.3-2.441-0.989-4.218-2.067-5.321
		c-1.078-1.108-2.552-1.547-4.419-1.32l-4.544,0.559l0,0L155.629,260.093L155.629,260.093z M190.604,255.589
		c-3.156,1.47-6.136,1.633-8.935,0.486c-2.803-1.152-5.007-3.443-6.609-6.879c-1.635-3.504-1.999-6.719-1.1-9.644
		c0.9-2.925,2.926-5.126,6.084-6.597c3.172-1.479,6.172-1.621,8.986-0.427c2.814,1.193,5.04,3.542,6.674,7.046
		c1.604,3.435,1.947,6.593,1.034,9.477C195.823,251.93,193.775,254.109,190.604,255.589L190.604,255.589z M188.824,251.774
		c1.832-0.853,2.956-2.172,3.379-3.964c0.42-1.793,0.092-3.849-0.994-6.176c-1.106-2.372-2.492-3.989-4.153-4.854
		c-1.657-0.858-3.401-0.865-5.232-0.013c-1.825,0.852-2.938,2.188-3.343,4.011c-0.405,1.826-0.057,3.927,1.05,6.3
		c1.086,2.326,2.445,3.901,4.085,4.734C185.254,252.645,186.99,252.63,188.824,251.774L188.824,251.774z M209.825,244.986
		l-14.912-18.406l0,0l1.915-1.55l0,0l7.367-5.964c1.752-1.418,3.55-2.093,5.385-2.022c1.831,0.067,3.369,0.874,4.614,2.408
		c1.437,1.774,1.883,3.549,1.354,5.335c-0.139,0.475-0.35,0.948-0.631,1.423l0,0c0.3-0.093,0.588-0.157,0.859-0.198
		c1.556-0.229,2.959,0.385,4.192,1.828l2.534,2.944c0.505,0.589,0.916,0.965,1.223,1.125c0.312,0.166,0.684,0.198,1.113,0.1
		l0.395,0.486l-4.246,3.437c-0.258-0.109-0.676-0.451-1.266-1.021c-0.585-0.564-1.175-1.214-1.772-1.934l-1.403-1.68
		c-0.686-0.812-1.406-1.203-2.16-1.174c-0.76,0.034-1.68,0.488-2.775,1.374l-3.834,3.104l0,0l5.893,7.275l0,0l-1.916,1.549
		L209.825,244.986L209.825,244.986z M205.27,231.508L205.27,231.508l4.46-3.61c0.995-0.806,1.577-1.608,1.749-2.419
		c0.166-0.808-0.081-1.62-0.742-2.437c-0.656-0.813-1.385-1.229-2.188-1.25c-0.8-0.024-1.671,0.348-2.613,1.11l-4.613,3.733l0,0
		L205.27,231.508L205.27,231.508z M232.795,225.12l-18.674-14.581l0,0L224.5,197.26l0,0l1.652,1.291l1.664,1.302l0,0l-7.334,9.382
		l0,0l4.246,3.313l0,0l6.391-8.178l1.6,1.249l1.613,1.261l0,0l-6.393,8.177l0,0l7.9,6.169l-1.518,1.94L232.795,225.12
		L232.795,225.12z M22.18,155.576h4.15v-22.222h-3.053c-0.208,0.762-0.509,1.388-0.899,1.887c-0.391,0.499-0.85,0.89-1.388,1.171
		c-0.401,0.214-0.832,0.381-1.294,0.503v3.255h2.484V155.576L22.18,155.576z M40.144,141.414c0.004,0.463-0.005,0.934-0.03,1.397
		c-0.03,0.469-0.104,0.898-0.227,1.288c-0.12,0.396-0.322,0.711-0.608,0.948c-0.281,0.236-0.677,0.36-1.181,0.365
		c-0.44-0.005-0.795-0.093-1.062-0.262c-0.268-0.172-0.471-0.399-0.609-0.686c-0.138-0.287-0.227-0.603-0.276-0.952
		c-0.049-0.352-0.074-0.708-0.074-1.067c0-0.366,0-0.706,0.005-1.032c-0.005-0.716-0.01-1.369-0.005-1.96
		c0.005-0.593,0.06-1.106,0.158-1.541c0.099-0.434,0.287-0.771,0.559-1.013c0.276-0.242,0.682-0.365,1.215-0.375
		c0.549-0.051,0.973,0.05,1.275,0.286c0.301,0.242,0.514,0.587,0.637,1.047c0.124,0.454,0.197,0.988,0.213,1.6
		C40.154,140.065,40.159,140.718,40.144,141.414L40.144,141.414z M44.293,141.71c0.02-1.309-0.059-2.479-0.247-3.521
		c-0.183-1.037-0.508-1.926-0.973-2.657c-0.459-0.735-1.097-1.294-1.912-1.679c-0.81-0.39-1.833-0.583-3.063-0.588
		c-1.195,0-2.194,0.178-2.989,0.533c-0.795,0.36-1.428,0.895-1.892,1.601c-0.47,0.706-0.801,1.59-0.998,2.642
		c-0.198,1.052-0.292,2.276-0.286,3.669c-0.005,1.521,0.173,2.8,0.523,3.832s0.899,1.812,1.641,2.341
		c0.746,0.523,1.704,0.789,2.875,0.789c0.632-0.004,1.151-0.078,1.551-0.227c0.4-0.144,0.726-0.331,0.989-0.553
		c0.261-0.227,0.503-0.46,0.72-0.7v1.421c-0.009,0.271-0.015,0.588-0.024,0.943c-0.005,0.355-0.035,0.721-0.089,1.091
		c-0.049,0.375-0.147,0.722-0.291,1.037c-0.147,0.321-0.361,0.578-0.642,0.775c-0.277,0.192-0.652,0.297-1.117,0.301
		c-0.42,0.021-0.751-0.024-0.993-0.133c-0.242-0.103-0.419-0.247-0.533-0.43c-0.114-0.183-0.188-0.374-0.222-0.589
		c-0.035-0.206-0.055-0.408-0.06-0.597h-3.854c-0.024,0.88,0.088,1.635,0.351,2.272c0.257,0.631,0.633,1.15,1.126,1.556
		c0.489,0.404,1.077,0.7,1.76,0.893c0.677,0.192,1.427,0.288,2.248,0.288c0.88,0.004,1.66-0.08,2.352-0.254
		c0.692-0.177,1.29-0.464,1.799-0.868c0.508-0.404,0.928-0.948,1.264-1.639c0.331-0.688,0.578-1.542,0.741-2.563
		c0.167-1.027,0.247-2.242,0.247-3.654V141.71L44.293,141.71z M243.277,139.636c-0.035-0.815,0.025-1.446,0.18-1.901
		c0.153-0.453,0.375-0.77,0.66-0.952c0.288-0.178,0.609-0.266,0.969-0.257c0.371-0.009,0.707,0.079,1.009,0.257
		c0.296,0.183,0.528,0.499,0.696,0.952c0.162,0.455,0.227,1.086,0.193,1.901v9.985c0.033,0.824-0.031,1.461-0.193,1.921
		c-0.168,0.458-0.4,0.774-0.696,0.957c-0.302,0.184-0.638,0.272-1.009,0.262c-0.359,0.011-0.681-0.078-0.969-0.262
		c-0.285-0.183-0.507-0.499-0.66-0.957c-0.154-0.46-0.215-1.097-0.18-1.921V139.636L243.277,139.636z M239.127,149.621
		c0,1.175,0.139,2.167,0.412,2.987c0.27,0.813,0.666,1.476,1.186,1.979c0.514,0.5,1.141,0.865,1.883,1.098
		c0.735,0.227,1.574,0.34,2.509,0.336c0.944,0.004,1.788-0.109,2.53-0.336c0.74-0.232,1.373-0.598,1.892-1.098
		c0.519-0.504,0.913-1.166,1.187-1.979c0.271-0.82,0.41-1.813,0.41-2.987v-9.985c0-1.175-0.139-2.167-0.41-2.982
		c-0.273-0.814-0.668-1.471-1.183-1.97c-0.519-0.499-1.146-0.859-1.886-1.086c-0.736-0.223-1.576-0.337-2.51-0.332
		c-0.944-0.005-1.785,0.109-2.53,0.332c-0.741,0.227-1.374,0.587-1.892,1.086c-0.52,0.499-0.916,1.155-1.186,1.97
		c-0.273,0.815-0.412,1.808-0.412,2.982V149.621L239.127,149.621z M256.262,147.813l4.092-9.007h0.059v9.007H256.262
		L256.262,147.813z M259.938,133.711l-6.729,14.103v3.259h7.203v4.504h4.15v-4.504h1.896v-3.259h-1.896v-14.103H259.938
		L259.938,133.711z"/>
</g>
</svg>
